<?xml version="1.0" standalone="no"?>
<!DOCTYPE svg PUBLIC "-//W3C//DTD SVG 20010904//EN"
 "http://www.w3.org/TR/2001/REC-SVG-20010904/DTD/svg10.dtd">
<svg version="1.0" xmlns="http://www.w3.org/2000/svg"
 width="128.000000pt" height="128.000000pt" viewBox="0 0 128.000000 128.000000"
 preserveAspectRatio="xMidYMid meet">
<metadata>
Created by potrace 1.11, written by Peter Selinger 2001-2013
</metadata>
<g transform="translate(0.000000,128.000000) scale(0.100000,-0.100000)"
fill="#000000" stroke="none">
<path d="M150 1267 c-49 -16 -123 -93 -138 -143 -16 -56 -17 -909 -1 -965 16
-50 61 -105 112 -132 42 -22 45 -22 517 -22 467 0 476 0 515 22 46 24 75 54
101 103 18 32 19 68 22 490 2 321 0 467 -9 496 -14 54 -60 109 -112 137 -42
22 -47 22 -507 24 -322 1 -476 -2 -500 -10z m1000 -36 c42 -22 75 -64 65 -82
-6 -9 -73 -11 -312 -5 l-303 6 0 -107 0 -108 68 71 c107 114 135 113 207 -10
28 -47 53 -82 56 -78 3 4 19 37 34 75 15 37 34 72 41 78 14 11 71 16 80 6 7
-7 -163 -386 -182 -406 -13 -14 -69 -20 -80 -8 -4 3 9 39 28 80 l35 73 -55 85
c-30 46 -56 86 -58 88 -6 7 -64 -51 -64 -63 0 -6 20 -42 45 -79 25 -37 43 -72
40 -77 -9 -14 -68 -12 -88 3 -9 6 -37 44 -61 82 l-46 70 0 -67 c0 -76 -14 -98
-61 -98 l-29 0 0 199 0 199 -182 3 c-101 1 -202 2 -226 2 -41 0 -42 0 -29 21
8 11 32 31 53 43 39 23 41 23 514 23 444 0 478 -1 510 -19z m-680 -175 c0 -43
-24 -56 -102 -56 -89 0 -87 -18 6 -40 80 -20 110 -46 110 -93 0 -71 -52 -107
-155 -107 -106 0 -135 24 -89 70 18 18 29 20 78 15 58 -6 96 6 77 23 -6 5 -37
14 -69 21 -94 18 -132 69 -101 135 22 46 46 55 153 55 91 1 92 1 92 -23z m-1
-604 c33 -24 38 -65 13 -90 -18 -18 -18 -19 5 -40 32 -29 28 -77 -8 -104 -38
-28 -178 -38 -202 -14 -25 25 -25 237 0 262 24 23 155 14 192 -14z m271 5 c0
-35 -19 -47 -77 -47 -46 0 -53 -3 -53 -20 0 -18 7 -20 60 -20 47 0 62 -4 67
-16 12 -32 -11 -49 -71 -52 -47 -3 -56 -6 -56 -22 0 -17 9 -19 68 -22 64 -3
67 -4 67 -28 0 -25 0 -25 -107 -28 l-108 -3 0 125 c0 154 2 156 127 156 80 0
83 -1 83 -23z m278 2 c4 -24 -25 -49 -59 -49 l-29 0 0 -100 c0 -97 -1 -101
-24 -112 -49 -22 -56 -8 -56 106 l0 105 -42 3 c-48 3 -61 24 -32 52 24 24 237
19 242 -5z m92 -426 c-30 -13 -94 -15 -486 -11 -306 4 -457 9 -470 16 -14 9
109 11 486 11 464 -1 502 -2 470 -16z"/>
<path d="M340 390 c0 -25 4 -30 24 -30 37 0 56 10 56 30 0 20 -19 30 -56 30
-20 0 -24 -5 -24 -30z"/>
<path d="M340 280 c0 -26 3 -30 29 -30 42 0 61 9 61 30 0 21 -19 30 -61 30
-26 0 -29 -4 -29 -30z"/>
</g>
</svg>
